<svg width="42" height="38" viewBox="0 0 42 38" fill="none" xmlns="http://www.w3.org/2000/svg">
<g clip-path="url(#clip0_42_34)">
<path d="M20.9825 3.16666C11.3225 3.16666 3.48248 10.26 3.48248 19C3.48248 27.74 11.3225 34.8333 20.9825 34.8333C30.6425 34.8333 38.4825 27.74 38.4825 19C38.4825 10.26 30.6425 3.16666 20.9825 3.16666ZM27.3 13.205C29.1725 13.205 30.6775 14.5667 30.6775 16.2608C30.6775 17.955 29.1725 19.3167 27.3 19.3167C25.4275 19.3167 23.9225 17.955 23.9225 16.2608C23.905 14.5667 25.4275 13.205 27.3 13.205ZM16.8 10.7033C19.075 10.7033 20.93 12.3817 20.93 14.44C20.93 16.4983 19.075 18.1767 16.8 18.1767C14.525 18.1767 12.67 16.4983 12.67 14.44C12.67 12.3658 14.5075 10.7033 16.8 10.7033ZM16.8 25.1592V31.0967C12.6 29.9092 9.27498 26.98 7.80498 23.2433C9.64248 21.47 14.2275 20.5675 16.8 20.5675C17.7275 20.5675 18.9 20.6942 20.125 20.9158C17.255 22.2933 16.8 24.1142 16.8 25.1592ZM20.9825 31.6667C20.51 31.6667 20.055 31.6508 19.6 31.6033V25.1592C19.6 22.9108 24.745 21.7867 27.3 21.7867C29.1725 21.7867 32.41 22.4042 34.02 23.6075C31.9725 28.31 26.915 31.6667 20.9825 31.6667Z" fill="white"/>
</g>
<defs>
<clipPath id="clip0_42_34">
<rect width="42" height="38" fill="white"/>
</clipPath>
</defs>
</svg>
